<mxfile host="Electron" agent="Mozilla/5.0 (Macintosh; Intel Mac OS X 10_15_7) AppleWebKit/537.36 (KHTML, like Gecko) draw.io/25.0.2 Chrome/128.0.6613.186 Electron/32.2.5 Safari/537.36" version="25.0.2">
  <diagram id="C5RBs43oDa-KdzZeNtuy" name="Page-1">
    <mxGraphModel dx="1194" dy="674" grid="1" gridSize="10" guides="1" tooltips="1" connect="1" arrows="1" fold="1" page="1" pageScale="1" pageWidth="827" pageHeight="1169" math="0" shadow="0">
      <root>
        <mxCell id="WIyWlLk6GJQsqaUBKTNV-0" />
        <mxCell id="WIyWlLk6GJQsqaUBKTNV-1" parent="WIyWlLk6GJQsqaUBKTNV-0" />
        <mxCell id="HU7rywC8hDADTYZXZJ0f-1" value="" style="edgeStyle=orthogonalEdgeStyle;rounded=0;orthogonalLoop=1;jettySize=auto;html=1;" parent="WIyWlLk6GJQsqaUBKTNV-1" source="WIyWlLk6GJQsqaUBKTNV-3" target="HU7rywC8hDADTYZXZJ0f-0" edge="1">
          <mxGeometry relative="1" as="geometry" />
        </mxCell>
        <mxCell id="WIyWlLk6GJQsqaUBKTNV-3" value="config_path" style="rounded=1;whiteSpace=wrap;html=1;fontSize=12;glass=0;strokeWidth=1;shadow=0;" parent="WIyWlLk6GJQsqaUBKTNV-1" vertex="1">
          <mxGeometry x="360" y="20" width="120" height="40" as="geometry" />
        </mxCell>
        <mxCell id="HU7rywC8hDADTYZXZJ0f-3" value="" style="edgeStyle=orthogonalEdgeStyle;rounded=0;orthogonalLoop=1;jettySize=auto;html=1;" parent="WIyWlLk6GJQsqaUBKTNV-1" source="HU7rywC8hDADTYZXZJ0f-0" target="HU7rywC8hDADTYZXZJ0f-2" edge="1">
          <mxGeometry relative="1" as="geometry" />
        </mxCell>
        <mxCell id="HU7rywC8hDADTYZXZJ0f-5" value="" style="edgeStyle=orthogonalEdgeStyle;rounded=0;orthogonalLoop=1;jettySize=auto;html=1;" parent="WIyWlLk6GJQsqaUBKTNV-1" source="HU7rywC8hDADTYZXZJ0f-0" target="HU7rywC8hDADTYZXZJ0f-4" edge="1">
          <mxGeometry relative="1" as="geometry" />
        </mxCell>
        <mxCell id="HU7rywC8hDADTYZXZJ0f-0" value="agent=&lt;div&gt;TrafficControlSystem(config_path)&lt;/div&gt;" style="whiteSpace=wrap;html=1;rounded=1;glass=0;strokeWidth=1;shadow=0;" parent="WIyWlLk6GJQsqaUBKTNV-1" vertex="1">
          <mxGeometry x="320" y="120" width="200" height="60" as="geometry" />
        </mxCell>
        <mxCell id="HU7rywC8hDADTYZXZJ0f-11" value="" style="edgeStyle=orthogonalEdgeStyle;rounded=0;orthogonalLoop=1;jettySize=auto;html=1;" parent="WIyWlLk6GJQsqaUBKTNV-1" source="HU7rywC8hDADTYZXZJ0f-2" target="HU7rywC8hDADTYZXZJ0f-10" edge="1">
          <mxGeometry relative="1" as="geometry" />
        </mxCell>
        <mxCell id="HU7rywC8hDADTYZXZJ0f-2" value="agent.run()" style="whiteSpace=wrap;html=1;rounded=1;glass=0;strokeWidth=1;shadow=0;" parent="WIyWlLk6GJQsqaUBKTNV-1" vertex="1">
          <mxGeometry x="360" y="240" width="120" height="60" as="geometry" />
        </mxCell>
        <mxCell id="HU7rywC8hDADTYZXZJ0f-7" value="" style="edgeStyle=orthogonalEdgeStyle;rounded=0;orthogonalLoop=1;jettySize=auto;html=1;" parent="WIyWlLk6GJQsqaUBKTNV-1" source="HU7rywC8hDADTYZXZJ0f-4" target="HU7rywC8hDADTYZXZJ0f-6" edge="1">
          <mxGeometry relative="1" as="geometry" />
        </mxCell>
        <mxCell id="HU7rywC8hDADTYZXZJ0f-4" value="&lt;div&gt;config=&lt;/div&gt;load_config(config_path)" style="whiteSpace=wrap;html=1;rounded=1;glass=0;strokeWidth=1;shadow=0;" parent="WIyWlLk6GJQsqaUBKTNV-1" vertex="1">
          <mxGeometry x="640" y="120" width="140" height="60" as="geometry" />
        </mxCell>
        <mxCell id="HU7rywC8hDADTYZXZJ0f-9" value="" style="edgeStyle=orthogonalEdgeStyle;rounded=0;orthogonalLoop=1;jettySize=auto;html=1;" parent="WIyWlLk6GJQsqaUBKTNV-1" source="HU7rywC8hDADTYZXZJ0f-6" target="HU7rywC8hDADTYZXZJ0f-8" edge="1">
          <mxGeometry relative="1" as="geometry" />
        </mxCell>
        <mxCell id="HU7rywC8hDADTYZXZJ0f-6" value="env=&lt;div&gt;AtsTrafficEnv(config)&lt;/div&gt;" style="whiteSpace=wrap;html=1;rounded=1;glass=0;strokeWidth=1;shadow=0;" parent="WIyWlLk6GJQsqaUBKTNV-1" vertex="1">
          <mxGeometry x="650" y="210" width="120" height="60" as="geometry" />
        </mxCell>
        <mxCell id="HU7rywC8hDADTYZXZJ0f-8" value="model=&lt;div&gt;load_model()&lt;/div&gt;" style="whiteSpace=wrap;html=1;rounded=1;glass=0;strokeWidth=1;shadow=0;" parent="WIyWlLk6GJQsqaUBKTNV-1" vertex="1">
          <mxGeometry x="650" y="300" width="120" height="60" as="geometry" />
        </mxCell>
        <mxCell id="HU7rywC8hDADTYZXZJ0f-13" value="" style="edgeStyle=orthogonalEdgeStyle;rounded=0;orthogonalLoop=1;jettySize=auto;html=1;" parent="WIyWlLk6GJQsqaUBKTNV-1" source="HU7rywC8hDADTYZXZJ0f-10" target="HU7rywC8hDADTYZXZJ0f-12" edge="1">
          <mxGeometry relative="1" as="geometry" />
        </mxCell>
        <mxCell id="HU7rywC8hDADTYZXZJ0f-10" value="obs=env.reset()" style="whiteSpace=wrap;html=1;rounded=1;glass=0;strokeWidth=1;shadow=0;" parent="WIyWlLk6GJQsqaUBKTNV-1" vertex="1">
          <mxGeometry x="160" y="240" width="120" height="60" as="geometry" />
        </mxCell>
        <mxCell id="HU7rywC8hDADTYZXZJ0f-15" value="" style="edgeStyle=orthogonalEdgeStyle;rounded=0;orthogonalLoop=1;jettySize=auto;html=1;" parent="WIyWlLk6GJQsqaUBKTNV-1" source="HU7rywC8hDADTYZXZJ0f-12" target="HU7rywC8hDADTYZXZJ0f-14" edge="1">
          <mxGeometry relative="1" as="geometry" />
        </mxCell>
        <mxCell id="HU7rywC8hDADTYZXZJ0f-12" value="while True" style="rhombus;whiteSpace=wrap;html=1;rounded=1;glass=0;strokeWidth=1;shadow=0;" parent="WIyWlLk6GJQsqaUBKTNV-1" vertex="1">
          <mxGeometry x="180" y="340" width="80" height="50" as="geometry" />
        </mxCell>
        <mxCell id="HU7rywC8hDADTYZXZJ0f-17" value="" style="edgeStyle=orthogonalEdgeStyle;rounded=0;orthogonalLoop=1;jettySize=auto;html=1;" parent="WIyWlLk6GJQsqaUBKTNV-1" source="HU7rywC8hDADTYZXZJ0f-14" target="HU7rywC8hDADTYZXZJ0f-16" edge="1">
          <mxGeometry relative="1" as="geometry" />
        </mxCell>
        <mxCell id="HU7rywC8hDADTYZXZJ0f-19" value="" style="edgeStyle=orthogonalEdgeStyle;rounded=0;orthogonalLoop=1;jettySize=auto;html=1;" parent="WIyWlLk6GJQsqaUBKTNV-1" source="HU7rywC8hDADTYZXZJ0f-14" target="HU7rywC8hDADTYZXZJ0f-18" edge="1">
          <mxGeometry relative="1" as="geometry" />
        </mxCell>
        <mxCell id="HU7rywC8hDADTYZXZJ0f-14" value="action=get_action(obs)" style="whiteSpace=wrap;html=1;rounded=1;glass=0;strokeWidth=1;shadow=0;" parent="WIyWlLk6GJQsqaUBKTNV-1" vertex="1">
          <mxGeometry x="155" y="430" width="130" height="40" as="geometry" />
        </mxCell>
        <mxCell id="HU7rywC8hDADTYZXZJ0f-21" value="" style="edgeStyle=orthogonalEdgeStyle;rounded=0;orthogonalLoop=1;jettySize=auto;html=1;" parent="WIyWlLk6GJQsqaUBKTNV-1" source="HU7rywC8hDADTYZXZJ0f-16" target="HU7rywC8hDADTYZXZJ0f-20" edge="1">
          <mxGeometry relative="1" as="geometry" />
        </mxCell>
        <mxCell id="HU7rywC8hDADTYZXZJ0f-16" value="obs,reward,dones,info=&lt;div&gt;env.step(action)&lt;/div&gt;" style="whiteSpace=wrap;html=1;rounded=1;glass=0;strokeWidth=1;shadow=0;" parent="WIyWlLk6GJQsqaUBKTNV-1" vertex="1">
          <mxGeometry x="155" y="520" width="130" height="40" as="geometry" />
        </mxCell>
        <mxCell id="HU7rywC8hDADTYZXZJ0f-18" value="action=&lt;div&gt;model.predict(obs)&lt;/div&gt;" style="whiteSpace=wrap;html=1;rounded=1;glass=0;strokeWidth=1;shadow=0;" parent="WIyWlLk6GJQsqaUBKTNV-1" vertex="1">
          <mxGeometry x="370" y="430" width="120" height="40" as="geometry" />
        </mxCell>
        <mxCell id="HU7rywC8hDADTYZXZJ0f-23" value="" style="edgeStyle=orthogonalEdgeStyle;rounded=0;orthogonalLoop=1;jettySize=auto;html=1;" parent="WIyWlLk6GJQsqaUBKTNV-1" source="HU7rywC8hDADTYZXZJ0f-20" target="HU7rywC8hDADTYZXZJ0f-22" edge="1">
          <mxGeometry relative="1" as="geometry" />
        </mxCell>
        <mxCell id="HU7rywC8hDADTYZXZJ0f-20" value="env.step" style="whiteSpace=wrap;html=1;rounded=1;glass=0;strokeWidth=1;shadow=0;" parent="WIyWlLk6GJQsqaUBKTNV-1" vertex="1">
          <mxGeometry x="370" y="525" width="70" height="30" as="geometry" />
        </mxCell>
        <mxCell id="HU7rywC8hDADTYZXZJ0f-25" value="" style="edgeStyle=orthogonalEdgeStyle;rounded=0;orthogonalLoop=1;jettySize=auto;html=1;" parent="WIyWlLk6GJQsqaUBKTNV-1" source="HU7rywC8hDADTYZXZJ0f-22" target="HU7rywC8hDADTYZXZJ0f-24" edge="1">
          <mxGeometry relative="1" as="geometry" />
        </mxCell>
        <mxCell id="HU7rywC8hDADTYZXZJ0f-22" value="traffic_signal.time_to_act" style="rhombus;whiteSpace=wrap;html=1;rounded=1;glass=0;strokeWidth=1;shadow=0;" parent="WIyWlLk6GJQsqaUBKTNV-1" vertex="1">
          <mxGeometry x="480" y="515" width="165" height="50" as="geometry" />
        </mxCell>
        <mxCell id="HU7rywC8hDADTYZXZJ0f-27" value="" style="edgeStyle=orthogonalEdgeStyle;rounded=0;orthogonalLoop=1;jettySize=auto;html=1;" parent="WIyWlLk6GJQsqaUBKTNV-1" source="HU7rywC8hDADTYZXZJ0f-24" target="HU7rywC8hDADTYZXZJ0f-26" edge="1">
          <mxGeometry relative="1" as="geometry" />
        </mxCell>
        <mxCell id="HU7rywC8hDADTYZXZJ0f-24" value="traffic_signal&lt;div&gt;.set_next_phase(action)&lt;/div&gt;" style="whiteSpace=wrap;html=1;rounded=1;glass=0;strokeWidth=1;shadow=0;" parent="WIyWlLk6GJQsqaUBKTNV-1" vertex="1">
          <mxGeometry x="486.88" y="590" width="151.25" height="40" as="geometry" />
        </mxCell>
        <mxCell id="HU7rywC8hDADTYZXZJ0f-29" value="" style="edgeStyle=orthogonalEdgeStyle;rounded=0;orthogonalLoop=1;jettySize=auto;html=1;" parent="WIyWlLk6GJQsqaUBKTNV-1" source="HU7rywC8hDADTYZXZJ0f-26" target="HU7rywC8hDADTYZXZJ0f-28" edge="1">
          <mxGeometry relative="1" as="geometry" />
        </mxCell>
        <mxCell id="HU7rywC8hDADTYZXZJ0f-26" value="&lt;div&gt;traffic_signal.update()&lt;/div&gt;" style="whiteSpace=wrap;html=1;rounded=1;glass=0;strokeWidth=1;shadow=0;" parent="WIyWlLk6GJQsqaUBKTNV-1" vertex="1">
          <mxGeometry x="502.51" y="660" width="120" height="30" as="geometry" />
        </mxCell>
        <mxCell id="HU7rywC8hDADTYZXZJ0f-31" value="" style="edgeStyle=orthogonalEdgeStyle;rounded=0;orthogonalLoop=1;jettySize=auto;html=1;" parent="WIyWlLk6GJQsqaUBKTNV-1" source="HU7rywC8hDADTYZXZJ0f-28" target="HU7rywC8hDADTYZXZJ0f-30" edge="1">
          <mxGeometry relative="1" as="geometry" />
        </mxCell>
        <mxCell id="HU7rywC8hDADTYZXZJ0f-28" value="data_collector.update()" style="whiteSpace=wrap;html=1;rounded=1;glass=0;strokeWidth=1;shadow=0;" parent="WIyWlLk6GJQsqaUBKTNV-1" vertex="1">
          <mxGeometry x="502.51" y="720" width="120" height="30" as="geometry" />
        </mxCell>
        <mxCell id="HU7rywC8hDADTYZXZJ0f-33" value="" style="edgeStyle=orthogonalEdgeStyle;rounded=0;orthogonalLoop=1;jettySize=auto;html=1;" parent="WIyWlLk6GJQsqaUBKTNV-1" source="HU7rywC8hDADTYZXZJ0f-30" target="HU7rywC8hDADTYZXZJ0f-32" edge="1">
          <mxGeometry relative="1" as="geometry" />
        </mxCell>
        <mxCell id="HU7rywC8hDADTYZXZJ0f-30" value="observation=&lt;div&gt;traffic_signal.compute_observation()&lt;/div&gt;" style="whiteSpace=wrap;html=1;rounded=1;glass=0;strokeWidth=1;shadow=0;" parent="WIyWlLk6GJQsqaUBKTNV-1" vertex="1">
          <mxGeometry x="463.76" y="790" width="197.49" height="40" as="geometry" />
        </mxCell>
        <mxCell id="HU7rywC8hDADTYZXZJ0f-32" value="reward=&lt;div&gt;traffic_signal.compute_reward()&lt;/div&gt;" style="whiteSpace=wrap;html=1;rounded=1;glass=0;strokeWidth=1;shadow=0;" parent="WIyWlLk6GJQsqaUBKTNV-1" vertex="1">
          <mxGeometry x="473.76" y="870" width="177.5" height="40" as="geometry" />
        </mxCell>
      </root>
    </mxGraphModel>
  </diagram>
</mxfile>
